<mxfile host="app.diagrams.net" agent="Mozilla/5.0 (X11; Linux x86_64) AppleWebKit/537.36 (KHTML, like Gecko) Chrome/119.0.0.0 Safari/537.36" version="26.0.16">
  <diagram id="C5RBs43oDa-KdzZeNtuy" name="Page-1">
    <mxGraphModel dx="2295" dy="893" grid="1" gridSize="10" guides="1" tooltips="1" connect="1" arrows="1" fold="1" page="1" pageScale="1" pageWidth="827" pageHeight="1169" math="0" shadow="0">
      <root>
        <mxCell id="WIyWlLk6GJQsqaUBKTNV-0" />
        <mxCell id="WIyWlLk6GJQsqaUBKTNV-1" parent="WIyWlLk6GJQsqaUBKTNV-0" />
        <mxCell id="o8i-YvAaMQVM1lxlmYJg-59" style="edgeStyle=none;curved=1;rounded=0;orthogonalLoop=1;jettySize=auto;html=1;entryX=0.5;entryY=0;entryDx=0;entryDy=0;fontSize=12;startSize=8;endSize=8;" edge="1" parent="WIyWlLk6GJQsqaUBKTNV-1" source="WIyWlLk6GJQsqaUBKTNV-3" target="o8i-YvAaMQVM1lxlmYJg-58">
          <mxGeometry relative="1" as="geometry" />
        </mxCell>
        <mxCell id="WIyWlLk6GJQsqaUBKTNV-3" value="char * o_cmd에 저장을 함" style="rounded=1;whiteSpace=wrap;html=1;fontSize=12;glass=0;strokeWidth=1;shadow=0;" parent="WIyWlLk6GJQsqaUBKTNV-1" vertex="1">
          <mxGeometry x="310" y="60" width="180" height="60" as="geometry" />
        </mxCell>
        <mxCell id="o8i-YvAaMQVM1lxlmYJg-55" style="edgeStyle=orthogonalEdgeStyle;rounded=0;orthogonalLoop=1;jettySize=auto;html=1;fontSize=12;startSize=8;endSize=8;strokeColor=default;entryX=0.537;entryY=-0.033;entryDx=0;entryDy=0;entryPerimeter=0;" edge="1" parent="WIyWlLk6GJQsqaUBKTNV-1" source="o8i-YvAaMQVM1lxlmYJg-6" target="o8i-YvAaMQVM1lxlmYJg-46">
          <mxGeometry relative="1" as="geometry">
            <mxPoint x="-560" y="690" as="targetPoint" />
          </mxGeometry>
        </mxCell>
        <mxCell id="o8i-YvAaMQVM1lxlmYJg-56" value="yes" style="edgeLabel;html=1;align=center;verticalAlign=middle;resizable=0;points=[];fontSize=12;" vertex="1" connectable="0" parent="o8i-YvAaMQVM1lxlmYJg-55">
          <mxGeometry x="-0.4774" relative="1" as="geometry">
            <mxPoint y="-20" as="offset" />
          </mxGeometry>
        </mxCell>
        <mxCell id="o8i-YvAaMQVM1lxlmYJg-57" style="edgeStyle=none;curved=1;rounded=0;orthogonalLoop=1;jettySize=auto;html=1;entryX=0.5;entryY=0;entryDx=0;entryDy=0;fontSize=12;startSize=8;endSize=8;" edge="1" parent="WIyWlLk6GJQsqaUBKTNV-1" source="o8i-YvAaMQVM1lxlmYJg-6" target="o8i-YvAaMQVM1lxlmYJg-49">
          <mxGeometry relative="1" as="geometry" />
        </mxCell>
        <mxCell id="o8i-YvAaMQVM1lxlmYJg-6" value="&lt;div&gt;builtins 확인&lt;br&gt;&lt;/div&gt;&lt;div&gt;&lt;br&gt;&lt;/div&gt;1. o_cmd_split[0]에 대하여 &#39;/&#39;를 기준으로 split 하여&lt;div&gt;temp에 저장&lt;/div&gt;&lt;div&gt;&lt;br&gt;&lt;/div&gt;&lt;div&gt;2. temp의 마지막 배열이&amp;nbsp;&lt;span style=&quot;background-color: transparent;&quot;&gt;builtins 확인.&lt;/span&gt;&lt;/div&gt;&lt;div&gt;&lt;span style=&quot;background-color: transparent;&quot;&gt;&lt;br&gt;&lt;/span&gt;&lt;/div&gt;&lt;div&gt;&lt;span style=&quot;background-color: transparent;&quot;&gt;3.&amp;nbsp;&lt;/span&gt;&lt;span style=&quot;background-color: transparent;&quot;&gt;builtins일 경우 temp를 free 시키고&amp;nbsp;&lt;/span&gt;&lt;span style=&quot;background-color: transparent;&quot;&gt;builtins 함수로,&lt;/span&gt;&lt;/div&gt;&lt;div&gt;&lt;span style=&quot;background-color: transparent;&quot;&gt;&amp;nbsp;아닐 경우&amp;nbsp;&lt;/span&gt;&lt;span style=&quot;background-color: transparent;&quot;&gt;temp를 free 시키고&amp;nbsp;&lt;/span&gt;&lt;span style=&quot;background-color: transparent;&quot;&gt;cmd 실행 함수로&amp;nbsp;&lt;/span&gt;&lt;/div&gt;&lt;div&gt;&lt;span style=&quot;background-color: transparent;&quot;&gt;&lt;br&gt;&lt;/span&gt;&lt;/div&gt;&lt;div&gt;&lt;span style=&quot;background-color: transparent;&quot;&gt;4.&amp;nbsp;&lt;/span&gt;&lt;span style=&quot;background-color: transparent;&quot;&gt;builtins일 경우 o_cmd_split[0]을 access를&amp;nbsp;&lt;/span&gt;&lt;span style=&quot;background-color: transparent;&quot;&gt;이용해서&lt;/span&gt;&lt;/div&gt;&lt;div&gt;&lt;span style=&quot;background-color: transparent;&quot;&gt;실행가능 경로인지 확인(맞으면&amp;nbsp;&lt;/span&gt;&lt;span style=&quot;background-color: transparent;&quot;&gt;builtins함수 실행)&lt;/span&gt;&lt;/div&gt;" style="rounded=1;whiteSpace=wrap;html=1;fontSize=12;glass=0;strokeWidth=1;shadow=0;" vertex="1" parent="WIyWlLk6GJQsqaUBKTNV-1">
          <mxGeometry x="-405" y="580" width="330" height="200" as="geometry" />
        </mxCell>
        <mxCell id="o8i-YvAaMQVM1lxlmYJg-60" style="edgeStyle=orthogonalEdgeStyle;rounded=0;orthogonalLoop=1;jettySize=auto;html=1;entryX=0.5;entryY=0;entryDx=0;entryDy=0;fontSize=12;startSize=8;endSize=8;" edge="1" parent="WIyWlLk6GJQsqaUBKTNV-1" source="o8i-YvAaMQVM1lxlmYJg-18" target="o8i-YvAaMQVM1lxlmYJg-40">
          <mxGeometry relative="1" as="geometry" />
        </mxCell>
        <mxCell id="o8i-YvAaMQVM1lxlmYJg-61" style="edgeStyle=orthogonalEdgeStyle;rounded=0;orthogonalLoop=1;jettySize=auto;html=1;entryX=0.5;entryY=0;entryDx=0;entryDy=0;fontSize=12;startSize=8;endSize=8;" edge="1" parent="WIyWlLk6GJQsqaUBKTNV-1" source="o8i-YvAaMQVM1lxlmYJg-18" target="o8i-YvAaMQVM1lxlmYJg-31">
          <mxGeometry relative="1" as="geometry" />
        </mxCell>
        <mxCell id="o8i-YvAaMQVM1lxlmYJg-18" value="상대 경로 or 절대 경로인지 확인" style="rounded=1;whiteSpace=wrap;html=1;fontSize=12;glass=0;strokeWidth=1;shadow=0;" vertex="1" parent="WIyWlLk6GJQsqaUBKTNV-1">
          <mxGeometry x="-90" y="310" width="180" height="60" as="geometry" />
        </mxCell>
        <mxCell id="o8i-YvAaMQVM1lxlmYJg-27" value="YES(경로로 들어옴)" style="edgeLabel;html=1;align=center;verticalAlign=middle;resizable=0;points=[];fontSize=12;" vertex="1" connectable="0" parent="WIyWlLk6GJQsqaUBKTNV-1">
          <mxGeometry x="-450" y="510" as="geometry">
            <mxPoint x="285" y="-185" as="offset" />
          </mxGeometry>
        </mxCell>
        <mxCell id="o8i-YvAaMQVM1lxlmYJg-28" value="&lt;span style=&quot;color: rgb(0, 0, 0); font-family: Helvetica; font-size: 12px; font-style: normal; font-variant-ligatures: normal; font-variant-caps: normal; font-weight: 400; letter-spacing: normal; orphans: 2; text-align: center; text-indent: 0px; text-transform: none; widows: 2; word-spacing: 0px; -webkit-text-stroke-width: 0px; white-space: nowrap; background-color: rgb(255, 255, 255); text-decoration-thickness: initial; text-decoration-style: initial; text-decoration-color: initial; display: inline !important; float: none;&quot;&gt;NO(경로가 아님)&lt;/span&gt;" style="text;whiteSpace=wrap;html=1;" vertex="1" parent="WIyWlLk6GJQsqaUBKTNV-1">
          <mxGeometry x="140" y="310" width="60" height="40" as="geometry" />
        </mxCell>
        <mxCell id="o8i-YvAaMQVM1lxlmYJg-69" style="edgeStyle=orthogonalEdgeStyle;rounded=0;orthogonalLoop=1;jettySize=auto;html=1;fontSize=12;startSize=8;endSize=8;entryX=0.5;entryY=0;entryDx=0;entryDy=0;" edge="1" parent="WIyWlLk6GJQsqaUBKTNV-1" source="o8i-YvAaMQVM1lxlmYJg-31" target="o8i-YvAaMQVM1lxlmYJg-68">
          <mxGeometry relative="1" as="geometry">
            <mxPoint x="420" y="500" as="targetPoint" />
            <Array as="points">
              <mxPoint x="460" y="500" />
            </Array>
          </mxGeometry>
        </mxCell>
        <mxCell id="o8i-YvAaMQVM1lxlmYJg-71" value="NO" style="edgeLabel;html=1;align=center;verticalAlign=middle;resizable=0;points=[];fontSize=12;" vertex="1" connectable="0" parent="o8i-YvAaMQVM1lxlmYJg-69">
          <mxGeometry x="-0.277" relative="1" as="geometry">
            <mxPoint x="-4" y="-10" as="offset" />
          </mxGeometry>
        </mxCell>
        <mxCell id="o8i-YvAaMQVM1lxlmYJg-31" value="builtins 확인" style="rounded=1;whiteSpace=wrap;html=1;fontSize=12;glass=0;strokeWidth=1;shadow=0;" vertex="1" parent="WIyWlLk6GJQsqaUBKTNV-1">
          <mxGeometry x="170" y="470" width="180" height="60" as="geometry" />
        </mxCell>
        <mxCell id="o8i-YvAaMQVM1lxlmYJg-32" value="" style="rounded=0;html=1;jettySize=auto;orthogonalLoop=1;fontSize=11;endArrow=block;endFill=0;endSize=8;strokeWidth=1;shadow=0;labelBackgroundColor=none;edgeStyle=orthogonalEdgeStyle;exitX=0;exitY=0.5;exitDx=0;exitDy=0;" edge="1" parent="WIyWlLk6GJQsqaUBKTNV-1" source="o8i-YvAaMQVM1lxlmYJg-31">
          <mxGeometry relative="1" as="geometry">
            <mxPoint x="60" y="580" as="targetPoint" />
            <mxPoint x="60" y="500" as="sourcePoint" />
          </mxGeometry>
        </mxCell>
        <mxCell id="o8i-YvAaMQVM1lxlmYJg-33" value="YES" style="edgeLabel;html=1;align=center;verticalAlign=middle;resizable=0;points=[];fontSize=12;" vertex="1" connectable="0" parent="o8i-YvAaMQVM1lxlmYJg-32">
          <mxGeometry x="-0.3668" relative="1" as="geometry">
            <mxPoint y="-10" as="offset" />
          </mxGeometry>
        </mxCell>
        <mxCell id="o8i-YvAaMQVM1lxlmYJg-36" value="builtins 함수 실행" style="rounded=1;whiteSpace=wrap;html=1;fontSize=12;glass=0;strokeWidth=1;shadow=0;" vertex="1" parent="WIyWlLk6GJQsqaUBKTNV-1">
          <mxGeometry x="-30" y="580" width="180" height="60" as="geometry" />
        </mxCell>
        <mxCell id="o8i-YvAaMQVM1lxlmYJg-41" style="edgeStyle=none;curved=1;rounded=0;orthogonalLoop=1;jettySize=auto;html=1;entryX=0.5;entryY=0;entryDx=0;entryDy=0;fontSize=12;startSize=8;endSize=8;" edge="1" parent="WIyWlLk6GJQsqaUBKTNV-1" source="o8i-YvAaMQVM1lxlmYJg-40" target="o8i-YvAaMQVM1lxlmYJg-6">
          <mxGeometry relative="1" as="geometry" />
        </mxCell>
        <mxCell id="o8i-YvAaMQVM1lxlmYJg-40" value="&lt;div&gt;char *o_cmd를&lt;/div&gt;&#39; &#39;기준으로char ** o_cmd_split&lt;div&gt;&amp;nbsp;에 split 해서 저장.&lt;/div&gt;" style="rounded=1;whiteSpace=wrap;html=1;fontSize=12;glass=0;strokeWidth=1;shadow=0;" vertex="1" parent="WIyWlLk6GJQsqaUBKTNV-1">
          <mxGeometry x="-330" y="470" width="180" height="60" as="geometry" />
        </mxCell>
        <mxCell id="o8i-YvAaMQVM1lxlmYJg-46" value="builtins 함수 실행" style="rounded=1;whiteSpace=wrap;html=1;fontSize=12;glass=0;strokeWidth=1;shadow=0;" vertex="1" parent="WIyWlLk6GJQsqaUBKTNV-1">
          <mxGeometry x="-630" y="850" width="180" height="60" as="geometry" />
        </mxCell>
        <mxCell id="o8i-YvAaMQVM1lxlmYJg-49" value="&lt;div&gt;cmd 확인&lt;br&gt;&lt;/div&gt;&lt;div&gt;&lt;br&gt;&lt;/div&gt;1. o_cmd_split[0] 배열을 access를 이용해서,&lt;div&gt;실행가능 경로인지 확인(command 에러 뛰우고 종료)&lt;/div&gt;&lt;div&gt;&lt;br&gt;&lt;/div&gt;&lt;div&gt;2. 실행&amp;nbsp; 가능하다면 fork를 따고 실행.&lt;/div&gt;" style="rounded=1;whiteSpace=wrap;html=1;fontSize=12;glass=0;strokeWidth=1;shadow=0;" vertex="1" parent="WIyWlLk6GJQsqaUBKTNV-1">
          <mxGeometry x="-405" y="840" width="330" height="200" as="geometry" />
        </mxCell>
        <mxCell id="o8i-YvAaMQVM1lxlmYJg-63" style="edgeStyle=orthogonalEdgeStyle;rounded=0;orthogonalLoop=1;jettySize=auto;html=1;entryX=0.5;entryY=0;entryDx=0;entryDy=0;fontSize=12;startSize=8;endSize=8;" edge="1" parent="WIyWlLk6GJQsqaUBKTNV-1" source="o8i-YvAaMQVM1lxlmYJg-58" target="o8i-YvAaMQVM1lxlmYJg-18">
          <mxGeometry relative="1" as="geometry" />
        </mxCell>
        <mxCell id="o8i-YvAaMQVM1lxlmYJg-64" value="NO" style="edgeLabel;html=1;align=center;verticalAlign=middle;resizable=0;points=[];fontSize=12;" vertex="1" connectable="0" parent="o8i-YvAaMQVM1lxlmYJg-63">
          <mxGeometry x="-0.2052" y="2" relative="1" as="geometry">
            <mxPoint x="-7" y="-12" as="offset" />
          </mxGeometry>
        </mxCell>
        <mxCell id="o8i-YvAaMQVM1lxlmYJg-66" style="edgeStyle=none;curved=1;rounded=0;orthogonalLoop=1;jettySize=auto;html=1;fontSize=12;startSize=8;endSize=8;" edge="1" parent="WIyWlLk6GJQsqaUBKTNV-1" source="o8i-YvAaMQVM1lxlmYJg-58" target="o8i-YvAaMQVM1lxlmYJg-65">
          <mxGeometry relative="1" as="geometry" />
        </mxCell>
        <mxCell id="o8i-YvAaMQVM1lxlmYJg-67" value="YES" style="edgeLabel;html=1;align=center;verticalAlign=middle;resizable=0;points=[];fontSize=12;" vertex="1" connectable="0" parent="o8i-YvAaMQVM1lxlmYJg-66">
          <mxGeometry x="-0.3152" relative="1" as="geometry">
            <mxPoint y="-10" as="offset" />
          </mxGeometry>
        </mxCell>
        <mxCell id="o8i-YvAaMQVM1lxlmYJg-58" value="&#39; &#39;로만 이루어 지거나&lt;div&gt;&#39;\n&#39;인지 확인&lt;/div&gt;" style="rounded=1;whiteSpace=wrap;html=1;fontSize=12;glass=0;strokeWidth=1;shadow=0;" vertex="1" parent="WIyWlLk6GJQsqaUBKTNV-1">
          <mxGeometry x="310" y="190" width="180" height="60" as="geometry" />
        </mxCell>
        <mxCell id="o8i-YvAaMQVM1lxlmYJg-65" value="무시하고 그냥 프롬 포트 실행" style="rounded=1;whiteSpace=wrap;html=1;fontSize=12;glass=0;strokeWidth=1;shadow=0;" vertex="1" parent="WIyWlLk6GJQsqaUBKTNV-1">
          <mxGeometry x="570" y="190" width="180" height="60" as="geometry" />
        </mxCell>
        <mxCell id="o8i-YvAaMQVM1lxlmYJg-73" style="edgeStyle=none;curved=1;rounded=0;orthogonalLoop=1;jettySize=auto;html=1;entryX=0.5;entryY=0;entryDx=0;entryDy=0;fontSize=12;startSize=8;endSize=8;" edge="1" parent="WIyWlLk6GJQsqaUBKTNV-1" source="o8i-YvAaMQVM1lxlmYJg-68" target="o8i-YvAaMQVM1lxlmYJg-72">
          <mxGeometry relative="1" as="geometry" />
        </mxCell>
        <mxCell id="o8i-YvAaMQVM1lxlmYJg-68" value="&lt;div&gt;char &amp;amp;o_cmd를&lt;/div&gt;&#39; &#39;를 기준으로 char **o_cmd_split&lt;div&gt;에&amp;nbsp; split 해서 저장&amp;nbsp;&lt;/div&gt;" style="rounded=1;whiteSpace=wrap;html=1;fontSize=12;glass=0;strokeWidth=1;shadow=0;" vertex="1" parent="WIyWlLk6GJQsqaUBKTNV-1">
          <mxGeometry x="370" y="580" width="180" height="60" as="geometry" />
        </mxCell>
        <mxCell id="o8i-YvAaMQVM1lxlmYJg-72" value="&lt;div&gt;cmd 확인&lt;br&gt;&lt;/div&gt;&lt;div&gt;&lt;br&gt;&lt;/div&gt;1. o_cmd_split[0] 배열을 char **path와 ft_strjoin을 사용해서&lt;div&gt;&lt;span style=&quot;background-color: transparent;&quot;&gt;char *temp에 저장&lt;/span&gt;&lt;/div&gt;&lt;div&gt;&lt;br&gt;&lt;div&gt;&lt;div&gt;&lt;div&gt;2 - 1. 실행&amp;nbsp; 가능하다면 o_cmd_split[0]을 free 시킨 후&lt;/div&gt;&lt;/div&gt;&lt;/div&gt;&lt;/div&gt;&lt;div&gt;temp를 0배열에 저장&lt;/div&gt;&lt;div&gt;&lt;br&gt;&lt;/div&gt;&lt;div&gt;2 - 2 아닌 경우 반복해서 맞는 실행 경로로 path&amp;nbsp; &amp;nbsp; &amp;nbsp; &amp;nbsp; &amp;nbsp;&amp;nbsp;&lt;/div&gt;&lt;div&gt;&lt;br&gt;&lt;/div&gt;&lt;div&gt;3. 모든 경로를 확인 후 없으면 0 반환,&lt;/div&gt;&lt;div&gt;있으면 1반환 하여 확인.&lt;/div&gt;" style="rounded=1;whiteSpace=wrap;html=1;fontSize=12;glass=0;strokeWidth=1;shadow=0;" vertex="1" parent="WIyWlLk6GJQsqaUBKTNV-1">
          <mxGeometry x="295" y="700" width="330" height="200" as="geometry" />
        </mxCell>
        <mxCell id="o8i-YvAaMQVM1lxlmYJg-74" value="&lt;div&gt;1일 경우&lt;br&gt;&lt;/div&gt;&lt;div&gt;&lt;br&gt;&lt;/div&gt;1. fork를 딴 후 자식 프로세서 생성.&lt;div&gt;&lt;br&gt;&lt;/div&gt;&lt;div&gt;2. execv&lt;/div&gt;" style="rounded=1;whiteSpace=wrap;html=1;fontSize=12;glass=0;strokeWidth=1;shadow=0;" vertex="1" parent="WIyWlLk6GJQsqaUBKTNV-1">
          <mxGeometry x="480" y="969" width="330" height="200" as="geometry" />
        </mxCell>
        <mxCell id="o8i-YvAaMQVM1lxlmYJg-75" value="&lt;div&gt;0일 경우&lt;/div&gt;&lt;div&gt;&lt;br&gt;&lt;/div&gt;1. o_cmd_split[0]배열을 활용해서 error command 띄우기" style="rounded=1;whiteSpace=wrap;html=1;fontSize=12;glass=0;strokeWidth=1;shadow=0;" vertex="1" parent="WIyWlLk6GJQsqaUBKTNV-1">
          <mxGeometry x="110" y="969" width="330" height="200" as="geometry" />
        </mxCell>
      </root>
    </mxGraphModel>
  </diagram>
</mxfile>
